# xmcd
#
# Track frame offsets:
#	150
#	16120
#	32495
#	46272
#	60392
#	71235
#	82512
#	94147
#	105465
#	116730
#
# Disc length: 1756 seconds
#
# Revision: 2
# Processed by: cddbd v1.5.2PL0 Copyright (c) Steve Scherf et al.
# Submitted via: audiograbber 1.83.01
#
DISCID=6e06da0a
DTITLE=George Jones - Hallelujah Weekend
DYEAR=1990
DGENRE=Country
TTITLE0=Mama's Family Bible
TTITLE1=A Picture From Life's Other Side
TTITLE2=Me And Jesus
TTITLE3=We Oughta Be Ashamed
TTITLE4=The Devil Is Gathering Firewood
TTITLE5=Would They Love Him Down In Shreveport
TTITLE6=Swoop Down, Sweet Yesus
TTITLE7=(It's The Bible Against The Bottle) The Battle Of Daddy's Soul
TTITLE8=Hallelujah Weekend
TTITLE9=Jesus Saves Today
EXTD=Produced by Billy Sherrill\n(c) 1990 CBS Record\nBackground Vocals by "The
EXTD=Jordanaires And Millie Kirkham\nEngineered by Lou Bradley and Ron Reynold
EXTD=s\nMastered by M.C. Rather and Hollis Flatt at Custom Mastering, Nashville
EXTD=, TN (Tennessee)
EXTT0=Larry Kingston
EXTT1=Hank Williams
EXTT2=Tom J. Hall
EXTT3=George Jones, Earl Montgomery
EXTT4=Bill Emerson, Jodie Emerson, George Jones
EXTT5=Bobby Braddock
EXTT6=John Anderson, Bill Emerson, James Bohon
EXTT7=Mel Howard, Jan Wolverton
EXTT8=George Jones, Earl Montgomery
EXTT9=Earl Montgomery
PLAYORDER=
